<svg width="24" height="24" viewBox="0 0 24 24" fill="none" xmlns="http://www.w3.org/2000/svg">
<path fill-rule="evenodd" clip-rule="evenodd" d="M23.4146 22.1224C23.4146 22.8361 22.8361 23.4153 22.1224 23.4153H16.1557V14.3475H19.1994L19.6554 10.8141H16.1557V8.55749C16.1557 7.53445 16.4402 6.83732 17.9071 6.83732L19.7785 6.83668V3.6757C19.4545 3.63296 18.344 3.53666 17.0518 3.53666C14.3539 3.53666 12.5068 5.18348 12.5068 8.20797V10.8141H9.45553V14.3475H12.5068V23.4153H1.2922C0.578493 23.4153 0 22.8361 0 22.1224V1.29284C0 0.578494 0.578493 0 1.2922 0H22.1224C22.8361 0 23.4146 0.578494 23.4146 1.29284V22.1224Z" fill="#F5F5F6"/>
</svg>
