<svg width="24" height="24" viewBox="0 0 24 24" fill="none" xmlns="http://www.w3.org/2000/svg">
<path id="Instagram" fill-rule="evenodd" clip-rule="evenodd" d="M11.7073 0.415283C8.5278 0.415283 8.12912 0.42876 6.88041 0.485735C5.6343 0.542571 4.78325 0.740496 4.03858 1.02993C3.26872 1.32907 2.61583 1.72938 1.96494 2.38022C1.3141 3.03111 0.913784 3.684 0.614642 4.45386C0.325213 5.19853 0.127288 6.04958 0.070452 7.29569C0.013477 8.5444 0 8.94308 0 12.1226C0 15.3021 0.013477 15.7008 0.070452 16.9495C0.127288 18.1956 0.325213 19.0467 0.614642 19.7913C0.913784 20.5612 1.3141 21.2141 1.96494 21.865C2.61583 22.5158 3.26872 22.9161 4.03858 23.2153C4.78325 23.5047 5.6343 23.7026 6.88041 23.7595C8.12912 23.8164 8.5278 23.8299 11.7073 23.8299C14.8868 23.8299 15.2855 23.8164 16.5342 23.7595C17.7803 23.7026 18.6314 23.5047 19.3761 23.2153C20.1459 22.9161 20.7988 22.5158 21.4497 21.865C22.1005 21.2141 22.5009 20.5612 22.8 19.7913C23.0894 19.0467 23.2873 18.1956 23.3442 16.9495C23.4012 15.7008 23.4146 15.3021 23.4146 12.1226C23.4146 8.94308 23.4012 8.5444 23.3442 7.29569C23.2873 6.04958 23.0894 5.19853 22.8 4.45386C22.5009 3.684 22.1005 3.03111 21.4497 2.38022C20.7988 1.72938 20.1459 1.32907 19.3761 1.02993C18.6314 0.740496 17.7803 0.542571 16.5342 0.485735C15.2855 0.42876 14.8868 0.415283 11.7073 0.415283ZM11.7073 2.52468C14.8333 2.52468 15.2036 2.53662 16.4381 2.59295C17.5795 2.64499 18.1994 2.83572 18.612 2.99605C19.1584 3.20842 19.5484 3.46212 19.9581 3.87182C20.3678 4.28147 20.6215 4.67146 20.8338 5.21793C20.9942 5.63047 21.1849 6.25036 21.2369 7.39181C21.2933 8.6263 21.3052 8.99659 21.3052 12.1226C21.3052 15.2486 21.2933 15.6188 21.2369 16.8533C21.1849 17.9948 20.9942 18.6147 20.8338 19.0272C20.6215 19.5737 20.3678 19.9637 19.9581 20.3733C19.5484 20.783 19.1584 21.0367 18.612 21.2491C18.1994 21.4094 17.5795 21.6002 16.4381 21.6522C15.2038 21.7085 14.8335 21.7205 11.7073 21.7205C8.5811 21.7205 8.21091 21.7085 6.97656 21.6522C5.8351 21.6002 5.21521 21.4094 4.80268 21.2491C4.25621 21.0367 3.86621 20.783 3.45656 20.3733C3.04691 19.9637 2.79317 19.5737 2.58079 19.0272C2.42046 18.6147 2.22974 17.9948 2.17769 16.8533C2.12137 15.6188 2.10942 15.2486 2.10942 12.1226C2.10942 8.99659 2.12137 8.6263 2.17769 7.39181C2.22974 6.25036 2.42046 5.63047 2.58079 5.21793C2.79317 4.67146 3.04686 4.28147 3.45656 3.87182C3.86621 3.46212 4.25621 3.20842 4.80268 2.99605C5.21521 2.83572 5.8351 2.64499 6.97656 2.59295C8.21105 2.53662 8.58134 2.52468 11.7073 2.52468ZM5.69546 12.1227C5.69546 8.80243 8.38704 6.11085 11.7073 6.11085C15.0276 6.11085 17.7192 8.80243 17.7192 12.1227C17.7192 15.443 15.0276 18.1346 11.7073 18.1346C8.38704 18.1346 5.69546 15.443 5.69546 12.1227ZM11.7073 16.0251C9.55205 16.0251 7.80488 14.2779 7.80488 12.1227C7.80488 9.9674 9.55205 8.22022 11.7073 8.22022C13.8626 8.22022 15.6098 9.9674 15.6098 12.1227C15.6098 14.2779 13.8626 16.0251 11.7073 16.0251ZM17.9567 7.27811C18.7326 7.27811 19.3616 6.64915 19.3616 5.87325C19.3616 5.09735 18.7326 4.46835 17.9567 4.46835C17.1808 4.46835 16.5518 5.09735 16.5518 5.87325C16.5518 6.64915 17.1808 7.27811 17.9567 7.27811Z" fill="#F5F5F6"/>
</svg>
