<svg width="20" height="20" viewBox="0 0 20 20" fill="none" xmlns="http://www.w3.org/2000/svg">
<path fill-rule="evenodd" clip-rule="evenodd" d="M13.8676 11.7016C13.6548 11.5952 12.6112 11.0823 12.4169 11.0109C12.2226 10.9402 12.0812 10.9052 11.939 11.118C11.7976 11.3294 11.3912 11.808 11.2676 11.9494C11.1433 12.0916 11.0198 12.1087 10.8076 12.003C10.5955 11.8959 9.91119 11.6723 9.10047 10.9494C8.46976 10.3866 8.04333 9.69158 7.91976 9.47873C7.79619 9.26658 7.90619 9.15158 8.01262 9.04587C8.10833 8.95087 8.22476 8.79801 8.33119 8.67444C8.43762 8.55016 8.47262 8.46159 8.54333 8.31944C8.61476 8.17801 8.57905 8.05444 8.52547 7.94801C8.47262 7.84159 8.04833 6.79659 7.87119 6.37159C7.69905 5.95802 7.52405 6.01445 7.39405 6.0073C7.26976 6.00159 7.12833 6.00016 6.98691 6.00016C6.84548 6.00016 6.61548 6.05302 6.42119 6.26587C6.22619 6.47802 5.67834 6.99159 5.67834 8.03659C5.67834 9.08087 6.43834 10.0902 6.54476 10.2323C6.65119 10.3737 8.04119 12.518 10.1705 13.4373C10.6776 13.6559 11.0726 13.7866 11.3805 13.8837C11.889 14.0459 12.3519 14.023 12.7176 13.968C13.1248 13.9073 13.9733 13.4544 14.1505 12.9587C14.3269 12.463 14.3269 12.038 14.274 11.9494C14.2212 11.8609 14.0798 11.808 13.8669 11.7016H13.8676ZM9.99476 16.9894H9.9919C8.72721 16.9897 7.48574 16.6497 6.39762 16.0051L6.14048 15.8523L3.46763 16.5537L4.1812 13.948L4.01334 13.6809C3.3063 12.5554 2.93212 11.2529 2.93406 9.92373C2.93548 6.03088 6.10262 2.86374 9.99761 2.86374C11.8833 2.86374 13.6562 3.59945 14.989 4.93373C15.6464 5.58843 16.1675 6.36699 16.5221 7.22437C16.8767 8.08175 17.0577 9.00093 17.0547 9.92873C17.0533 13.8216 13.8862 16.9894 9.99476 16.9894ZM16.0033 3.92016C15.2163 3.12797 14.2799 2.49984 13.2484 2.07217C12.2169 1.6445 11.1107 1.4258 9.99404 1.42874C5.31262 1.42874 1.5012 5.23945 1.49977 9.92301C1.49906 11.4202 1.88977 12.8816 2.63334 14.1694L1.42834 18.5716L5.93119 17.3901C7.17682 18.0688 8.57268 18.4244 9.99119 18.4244H9.99476C14.6762 18.4244 18.4876 14.6137 18.489 9.92944C18.4925 8.81321 18.2746 7.70737 17.8479 6.6759C17.4212 5.64442 16.7943 4.70778 16.0033 3.92016Z" fill="white"/>
</svg>
